# xmcd CD database file
#
# Track frame offsets:
#	180
#	13209
#	27600
#	37411
#	50721
#	62982
#	77259
#	94813
#	111142
#	123265
#	137163
#	148451
#	157926
#	170288
#	182529
#	195412
#	207083
#	219288
#	235825
#	249863
#	260512
#	276963
#
# Disc length: 3864 seconds
#
# Revision: 0
# Processed by: cddbd v1.4PL0 Copyright (c) Steve Scherf et al.
# Submitted via: CDex 1.50beta8
#
DISCID=3f0f1616
DTITLE=Merle Haggard - Legends
DYEAR=2002
DGENRE=Country
TTITLE0=Swinging Doors
TTITLE1=I'm A Lonsome Fugitive
TTITLE2=Mama Tried
TTITLE3=The Way I Am
TTITLE4=Okie From Muskogee
TTITLE5=Branded Man
TTITLE6=I Think I'll Just Stay Here And Drink
TTITLE7=Hungry Eyes
TTITLE8=I Take A Lot Of Pride In What I Am
TTITLE9=I Threw Away The Rose
TTITLE10=My Friends Are Gonna Be Strangers
TTITLE11=The Legend Of Bonnie And Clyde
TTITLE12=If We Make It Through December
TTITLE13=The Bottle Let Me Down
TTITLE14=The Fightin' Side Of Me
TTITLE15=Carolyn
TTITLE16=Workin' Man Blues
TTITLE17=Daddy Frank (The Guitar Man)
TTITLE18=Always Wanting You
TTITLE19=Some Day We'll Look Back
TTITLE20=Ramblin' Fever
TTITLE21=Sing Me Back Home
EXTD=YEAR: 2002
EXTT0=
EXTT1=
EXTT2=
EXTT3=
EXTT4=
EXTT5=
EXTT6=
EXTT7=
EXTT8=
EXTT9=
EXTT10=
EXTT11=
EXTT12=
EXTT13=
EXTT14=
EXTT15=
EXTT16=
EXTT17=
EXTT18=
EXTT19=
EXTT20=
EXTT21=
PLAYORDER=
